<svg xmlns="http://www.w3.org/2000/svg" viewBox="0 0 1000 1000" enable-background="new 0 0 1000 1000"><g fill="#fbc42d"><path d="M530.83 11.28c-19.45 2.94-40.25 13.34-54.05 27.36-14.47 14.7-21.71 28.49-24.65 48.85-1.13 8.37-4.07 18.77-6.11 23.07-2.26 4.3-16.96 18.99-32.79 32.79-33.47 29.17-45.23 43.64-48.62 60.38-7.69 35.5 22.16 71.91 59.02 71.91 17.86 0 64.22-18.54 94.07-37.77 20.58-13.12 23.97-31.89 8.14-45.68-11.53-10.18-20.13-9.5-42.51 3.62-20.13 11.99-51.79 25.55-59.25 25.55-7.46 0-8.59-6.56-2.71-12.89 2.94-3.17 16.51-15.15 30.08-26.91 37.77-32.11 48.62-48.39 52.92-80.05 2.03-15.6 2.94-17.64 11.08-25.33 13.79-12.66 29.4-16.06 45.91-9.5 18.32 7.46 29.63 32.57 33.92 75.3 3.17 30.08 1.13 44.1-16.51 114.43-7.46 29.85-14.02 61.28-14.7 70.1-2.94 36.41 7.69 98.6 22.84 135.23 14.02 33.94 25.55 51.13 72.59 107.89 54.5 65.81 65.58 87.74 65.13 128.9-1.13 75.76-39.8 126.87-111.71 147.67-29.63 8.82-58.57 11.54-102.45 9.95-78.02-2.94-126.86-20.13-164.18-57.89-40.03-40.93-59.7-99.28-67.84-202.4-2.94-37.77-2.94-66.94 0-66.94 1.36 0 8.59 2.49 16.28 5.65 19.9 8.14 29.62 7.69 39.35-2.04 6.56-6.56 7.69-9.27 7.69-17.86 0-17.19-5.43-21.48-47.94-37.31-20.35-7.46-39.12-14.25-41.84-15.15-6.56-1.81-19.22 3.84-25.1 11.31-4.75 5.88-4.98 8.59-4.98 45 0 97.92 12.44 180.91 35.05 235.87 26.46 63.54 66.49 105.16 125.96 130.48 78.47 33.24 197.42 34.6 272.27 2.94 76.21-32.11 118.72-95.43 122.34-182.5 1.13-26.23.68-33.02-3.39-49.07-7.69-30.53-24.87-61.51-54.05-97.02-70.1-86.16-76.21-94.98-88.2-129.8-3.85-11.76-9.05-33.24-11.08-47.49-5.65-38.9-3.62-59.93 9.95-113.07 17.64-67.62 19.22-79.15 17.87-118.72-1.36-37.31-6.11-60.16-17.19-83.67-19.65-41.62-56.74-61.97-100.61-55.19zM471.58 284.46c-9.27 5.65-11.53 12.89-13.12 40.93-2.94 55.64-16.96 97.7-46.81 140.21-6.56 9.27-31.43 36.86-55.18 61.06-23.97 24.2-44.55 46.36-46.13 49.07-9.5 18.32 8.59 41.84 29.17 37.54 9.5-1.81 90.23-81.86 111.26-110.36 37.99-50.88 57.21-106.06 61.96-176.62 1.13-19.22.9-24.2-2.49-31.21-6.78-14.46-24.42-19.21-38.66-10.62zM387.23 928.29c-14.7 12.44-13.57 31.89 2.94 45.46 13.57 11.08 28.04 14.7 62.42 15.83 28.49.9 31.21.68 40.48-4.3 25.1-13.12 23.75-46.36-2.26-54.05-7.24-2.26-9.72-2.04-18.54 2.26-8.59 4.07-12.21 4.52-26.23 3.39-13.12-1.36-17.86-2.71-24.42-7.92-10.87-8.81-24.67-9.04-34.39-.67zM636.66 928.52c-10.63 7.24-39.35 11.31-47.26 6.56-12.66-7.92-27.59-5.2-36.86 6.56-9.72 12.21-4.3 33.02 10.63 42.29 6.78 4.29 12.21 5.2 31.43 5.88 37.54 1.58 66.49-6.33 79.6-21.48 5.65-6.33 6.78-9.5 6.78-18.99 0-10.18-.9-12.44-7.69-19.22-10.17-10.2-23.51-10.65-36.63-1.6z"/></g></svg>